<svg width="17" height="16" fill="none" xmlns="http://www.w3.org/2000/svg"><path d="M15.999 5.276a4.334 4.334 0 00-.784-2.521 4.132 4.132 0 00-2.082-1.553 4.009 4.009 0 00-2.57.02 4.136 4.136 0 00-2.06 1.583 4.136 4.136 0 00-2.06-1.584 4.009 4.009 0 00-2.57-.019A4.131 4.131 0 001.79 2.755a4.334 4.334 0 00-.785 2.521 4.373 4.373 0 000 .464c.45 4.478 7.497 9.189 7.497 9.189s6.222-4.325 7.346-8.417a4.33 4.33 0 00.15-1.236z" stroke="#FCFCFC" stroke-miterlimit="10" stroke-linecap="round" stroke-linejoin="round"/></svg>