<svg width="16" height="14" fill="none" xmlns="http://www.w3.org/2000/svg"><path d="M15.112 2.777c-.268.1-.543.181-.822.242a.125.125 0 01-.138-.063.126.126 0 01.025-.15 3.79 3.79 0 00.78-1.066.124.124 0 00-.025-.143.125.125 0 00-.144-.022 4.65 4.65 0 01-1.632.518 3.23 3.23 0 00-2.25-.938 3.09 3.09 0 00-3.094 3.094c0 .228.023.456.07.68-2.261-.07-4.902-1.162-6.445-3.063a.125.125 0 00-.207.018 3.119 3.119 0 00.739 3.698.125.125 0 01-.086.222 1.937 1.937 0 01-.775-.2.125.125 0 00-.181.119A2.913 2.913 0 002.92 8.365a.125.125 0 01-.022.24 3.142 3.142 0 01-.709 0 .127.127 0 00-.134.16c.213.82 1.273 1.78 2.46 1.912a.126.126 0 01.104.158.125.125 0 01-.037.06 5.236 5.236 0 01-3.5 1.144.125.125 0 00-.064.236 9.321 9.321 0 004.333 1.066 8.625 8.625 0 008.671-9.045v-.118a5.278 5.278 0 001.234-1.21.125.125 0 00-.145-.19v0z" stroke="#fff" stroke-miterlimit="10"/></svg>