<svg width="16" height="14" viewBox="0 0 16 14" fill="none" xmlns="http://www.w3.org/2000/svg">
<path d="M15.112 2.77728C14.844 2.87721 14.5693 2.95808 14.29 3.01928C14.2632 3.02528 14.2352 3.02231 14.2103 3.01083C14.1854 2.99935 14.1649 2.97999 14.1521 2.95574C14.1393 2.93148 14.1348 2.90369 14.1393 2.87664C14.1439 2.84958 14.1572 2.82477 14.1772 2.80603C14.4976 2.4992 14.7615 2.13846 14.957 1.74028C14.9683 1.71673 14.9719 1.69024 14.9673 1.66452C14.9628 1.6388 14.9503 1.61516 14.9316 1.5969C14.913 1.57864 14.889 1.56669 14.8632 1.56272C14.8374 1.55876 14.811 1.56297 14.7877 1.57478C14.2805 1.84686 13.7272 2.02242 13.156 2.09253C12.5572 1.49817 11.7496 1.16169 10.906 1.15503C10.4996 1.15467 10.0972 1.23444 9.72172 1.38977C9.34623 1.54511 9.00506 1.77296 8.71773 2.06029C8.4304 2.34762 8.20255 2.68879 8.04722 3.06427C7.89188 3.43976 7.81211 3.84218 7.81247 4.24853C7.81142 4.47698 7.83497 4.70488 7.88272 4.92828C5.62073 4.85978 2.98023 3.76653 1.43748 1.86603C1.42461 1.84991 1.40796 1.83723 1.389 1.82911C1.37004 1.82099 1.34937 1.81768 1.32883 1.81949C1.30829 1.8213 1.28851 1.82816 1.27126 1.83946C1.25401 1.85077 1.23983 1.86616 1.22998 1.88428C0.932683 2.49678 0.843983 3.18973 0.977419 3.85736C1.11085 4.52499 1.45909 5.13061 1.96898 5.58178C1.98947 5.59846 2.00415 5.6212 2.01091 5.64673C2.01767 5.67227 2.01617 5.6993 2.00662 5.72393C1.99706 5.74856 1.97995 5.76953 1.95774 5.78383C1.93553 5.79814 1.90935 5.80503 1.88298 5.80353C1.61354 5.79154 1.34957 5.72342 1.10798 5.60353C1.08833 5.59358 1.06641 5.58899 1.04443 5.59024C1.02244 5.59148 1.00118 5.59851 0.982781 5.61061C0.964386 5.62271 0.949514 5.63946 0.939671 5.65916C0.929828 5.67886 0.925362 5.7008 0.926726 5.72278C0.95185 6.31352 1.15613 6.88263 1.51243 7.3545C1.86873 7.82637 2.36018 8.17864 2.92148 8.36453C2.94754 8.37393 2.96975 8.39172 2.9846 8.41511C2.99946 8.43849 3.00612 8.46616 3.00354 8.49374C3.00097 8.52133 2.9893 8.54728 2.97037 8.56751C2.95144 8.58775 2.92633 8.60112 2.89898 8.60553C2.66356 8.63224 2.42589 8.63224 2.19048 8.60553C2.17016 8.60362 2.14967 8.60666 2.13078 8.61438C2.11189 8.6221 2.09515 8.63428 2.08198 8.64988C2.06882 8.66548 2.05962 8.68403 2.05518 8.70395C2.05074 8.72387 2.05118 8.74457 2.05648 8.76428C2.26873 9.58478 3.32948 10.5455 4.51623 10.6773C4.54001 10.6804 4.5624 10.6903 4.58072 10.7057C4.59905 10.7212 4.61253 10.7416 4.61957 10.7646C4.6266 10.7875 4.6269 10.812 4.62041 10.835C4.61392 10.8581 4.60093 10.8789 4.58298 10.8948C3.59334 11.6874 2.34971 12.094 1.08298 12.039C1.05459 12.0378 1.02662 12.0462 1.00368 12.063C0.980741 12.0797 0.964195 12.1038 0.956771 12.1312C0.949347 12.1587 0.951488 12.1878 0.962841 12.2139C0.974193 12.2399 0.994081 12.2613 1.01923 12.2745C2.35578 12.9755 3.84252 13.3415 5.35173 13.341C6.52457 13.3488 7.68668 13.1172 8.767 12.6606C9.84731 12.2039 10.8231 11.5317 11.6348 10.685C12.4465 9.83838 13.0769 8.83507 13.4876 7.73646C13.8984 6.63785 14.0807 5.46701 14.0235 4.29553V4.17828C14.4983 3.84553 14.9151 3.4368 15.257 2.96853C15.2731 2.94681 15.2817 2.92045 15.2816 2.8934C15.2814 2.86635 15.2725 2.84008 15.2562 2.81853C15.2399 2.79697 15.217 2.7813 15.191 2.77387C15.165 2.76643 15.1372 2.76763 15.112 2.77728V2.77728Z" stroke="white" stroke-miterlimit="10"/>
</svg>